<?xml version="1.0" encoding="UTF-8"?><svg id="d" xmlns="http://www.w3.org/2000/svg" width="16" height="16" viewBox="0 0 16 16"><defs><style>.k{fill:#fff;}.l{fill:#1c1338;}</style></defs><rect class="l" y="0" width="16" height="16"/><g><path class="k" d="M1.6658,4.2498c-.1081-.1868-.3099-.3125-.5412-.3125-.3452,0-.625,.2798-.625,.625s.2798,.625,.625,.625c.2313,0,.4331-.1257,.5412-.3125H7.0624v5.4707l-1.2501-1.4898v-2.7308H3.5409c-.1081-.1868-.3099-.3125-.5412-.3125-.3452,0-.625,.2798-.625,.625s.2798,.625,.625,.625c.2313,0,.4331-.1257,.5412-.3125h1.6464v2.3333l.625,.7449,1.2501,1.4898,.625,.7449V4.2498H1.6658Z"/><path class="k" d="M14.8754,3.9373c-.2313,0-.4331,.1257-.5412,.3125h-6.0217v7.813l.625-.7449,1.2501-1.4898,.625-.7449v-2.3333h1.6464c.1081,.1868,.3099,.3125,.5412,.3125,.3452,0,.625-.2798,.625-.625s-.2798-.625-.625-.625c-.2313,0-.4331,.1257-.5412,.3125h-2.2715v2.7308l-1.2501,1.4898V4.8748h5.3966c.1081,.1868,.3099,.3125,.5412,.3125,.3452,0,.625-.2798,.625-.625s-.2798-.625-.625-.625Z"/></g></svg>